<svg width="27" height="37" viewBox="0 0 27 37" fill="none" xmlns="http://www.w3.org/2000/svg">
<path opacity="0.4" d="M9.35294 16.0832H17.647V8.72353H9.35294V16.0832ZM8.3796 36.9095C7.47344 36.9095 6.90301 35.9333 7.34785 35.1439L13.4118 24.3824H4.73707C2.12086 24.3824 0 22.2616 0 19.6453V5.1614C0 2.54519 2.12086 0.424316 4.73708 0.424316H22.2629C24.8791 0.424316 27 2.54518 27 5.1614V20.4925C27 22.5294 26.4747 24.5318 25.4748 26.3063L19.8397 36.3066C19.6298 36.6791 19.2355 36.9095 18.808 36.9095H8.3796ZM9.35294 16.0832V8.72353H17.647V16.0832H9.35294Z" fill="#FE0000"/>
</svg>
