<svg width="31" height="42" viewBox="0 0 31 42" fill="none" xmlns="http://www.w3.org/2000/svg">
<path d="M10.7386 17.8959H20.2614V9.48481H10.7386V17.8959ZM9.32538 41.6974C8.41819 41.6974 7.84787 40.7192 8.29479 39.9297L15.3987 27.3807H4.73708C2.12087 27.3807 0 25.2598 0 22.6436V4.73708C0 2.12087 2.12086 0 4.73708 0H26.2629C28.8791 0 31 2.12086 31 4.73708V23.3664C31 25.4112 30.4706 27.4211 29.4632 29.2006L22.729 41.0965C22.5188 41.4679 22.1251 41.6974 21.6984 41.6974H9.32538ZM10.7386 17.8959V9.48481H20.2614V17.8959H10.7386Z" fill="#FF0000"/>
</svg>
